<?xml version="1.0" encoding="utf-8"?>
<!-- Generator: Adobe Illustrator 18.0.0, SVG Export Plug-In . SVG Version: 6.00 Build 0)  -->
<!DOCTYPE svg PUBLIC "-//W3C//DTD SVG 1.1//EN" "http://www.w3.org/Graphics/SVG/1.1/DTD/svg11.dtd">
<svg version="1.1" id="Layer_1" xmlns="http://www.w3.org/2000/svg" xmlns:xlink="http://www.w3.org/1999/xlink" x="0px" y="0px"
	 viewBox="0 0 724 533.8" enable-background="new 0 0 724 533.8" xml:space="preserve">
<path d="M123.6,92.5h-16.8l-17.8,52h13.5l3.1-9.6h18.6l3.2,9.6h13.9L123.6,92.5z M109.5,123.4l5.1-16.7h1.1l5,16.7H109.5z"/>
<path d="M408.9,92.5h-16.8l-17.8,52h13.5l3.1-9.6h18.6l3.2,9.6h13.9L408.9,92.5z M394.8,123.4l5.1-16.7h1.1l5,16.7H394.8z"/>
<path d="M346,177.9h-16.8l-17.8,52h13.5l3.1-9.6h18.6l3.2,9.6h13.9L346,177.9z M331.9,208.8l5.1-16.7h1.1l5,16.7H331.9z"/>
<path d="M249.1,99.4c5-5.1,11.3-7.7,18.8-7.7c7.4,0,13.7,2.6,18.8,7.7c5.1,5.1,7.7,11.5,7.7,19.1c0,7.6-2.5,14-7.6,19.2
	c-5.1,5.1-11.4,7.7-18.9,7.7c-7.5,0-13.7-2.6-18.8-7.7c-5-5.1-7.6-11.5-7.6-19.2C241.5,110.9,244,104.5,249.1,99.4z M258.8,129
	c2.2,2.7,5.3,4.2,9.1,4.2c3.9,0,6.9-1.4,9.1-4.2c2.2-2.7,3.3-6.2,3.3-10.4c0-4.2-1.1-7.7-3.3-10.5c-2.2-2.7-5.2-4.2-9.1-4.2
	c-3.9,0-6.9,1.4-9.1,4.2c-2.2,2.7-3.3,6.2-3.3,10.5C255.5,122.7,256.6,126.2,258.8,129z"/>
<path d="M338.8,109.7c-3.5-3.9-6-5.8-11.4-5.8c-3.8,0-6.9,1.4-9.5,4.2s-3.9,6.2-3.9,10.4c0,4.2,1.3,7.8,3.9,10.5
	c2.6,2.7,5.8,4.1,9.7,4.1c5.9,0,9.1-2.2,12.7-7.2l8.2,9.1c-5.2,6.9-12.5,10.4-22,10.4c-7.6,0-14-2.5-18.9-7.6
	c-5-5.1-7.4-11.6-7.4-19.2c0-7.6,2.5-14,7.6-19.1c5.1-5.1,11.4-7.7,19.1-7.7c8.4,0,15.3,3.1,20.6,9.3L338.8,109.7z"/>
<path d="M355.1,144.6v-52h13.5v52H355.1z"/>
<path d="M423.4,92.5h41.8v11.9h-14.1v40.2h-13.6v-40.2h-14.1V92.5z"/>
<path d="M471.5,144.6v-52H485v52H471.5z"/>
<path d="M500,99.4c5-5.1,11.3-7.7,18.8-7.7c7.4,0,13.7,2.6,18.8,7.7c5.1,5.1,7.7,11.5,7.7,19.1c0,7.6-2.5,14-7.6,19.2
	c-5.1,5.1-11.4,7.7-18.9,7.7c-7.5,0-13.7-2.6-18.8-7.7c-5-5.1-7.6-11.5-7.6-19.2C492.5,110.9,495,104.5,500,99.4z M509.8,129
	c2.2,2.7,5.3,4.2,9.1,4.2c3.9,0,6.9-1.4,9.1-4.2c2.2-2.7,3.3-6.2,3.3-10.4c0-4.2-1.1-7.7-3.3-10.5c-2.2-2.7-5.2-4.2-9.1-4.2
	c-3.9,0-6.9,1.4-9.1,4.2s-3.3,6.2-3.3,10.5C506.4,122.7,507.5,126.2,509.8,129z"/>
<path d="M582.3,144.6l-16-32.2v32.2h-13.5v-52h17.4l16,32.2V92.5h13.6v52H582.3z"/>
<path d="M92.5,230v-52h39.2v11.9h-24.8v7.9h23.5v11.4h-23.5v8.9h24.8V230H92.5z M111.4,162.7h14.4l-10,11.4h-10.8L111.4,162.7z"/>
<path d="M137.1,177.9h41.8v11.9h-14.1V230h-13.6v-40.2h-14.1V177.9z"/>
<path d="M215.5,177.9H229v29.3c0,15.5-8.4,23.5-22.3,23.5c-13.7,0-22.2-8-22.2-23.5v-29.3h13.5v29c0,7.7,2.9,11.6,8.7,11.6
	c5.9,0,8.8-3.9,8.8-11.7V177.9z"/>
<path d="M237.7,230v-52h18.8c7.4,0,13.7,1.6,19.3,5.4c5.6,3.8,8.9,10.8,8.9,20.3c0,19.7-14.2,26.4-28.2,26.4H237.7z M251.2,189.8
	v28.3h3.6c10.8,0,16.3-4.8,16.3-14.5c0-9.2-5.4-13.8-16.3-13.8H251.2z"/>
<path d="M292.2,230v-52h13.5v52H292.2z"/>
<path d="M398.9,230l-16-32.2V230h-13.5v-52h17.4l16,32.2v-32.2h13.6v52H398.9z"/>
<path d="M422.6,177.9h41.8v11.9h-14.1V230h-13.6v-40.2h-14.1V177.9z"/>
<path d="M470.6,230v-52h39.2v11.9H485v7.9h23.5v11.4H485v8.9h24.8V230H470.6z"/>
<path d="M92.5,315.4v-52h18.8c7.4,0,13.7,1.6,19.3,5.4c5.6,3.8,8.9,10.8,8.9,20.3c0,19.7-14.2,26.4-28.2,26.4H92.5z M106,275.2v28.3
	h3.6c10.8,0,16.3-4.8,16.3-14.5c0-9.2-5.4-13.8-16.3-13.8H106z"/>
<path d="M147,315.4v-52h39.2v11.9h-24.8v7.9h23.5v11.4h-23.5v8.9h24.8v11.9H147z"/>
<path d="M218.5,315.4v-52H232v40.2h21.7v11.9H218.5z"/>
<path d="M266.2,263.4H280l-8.9,17.4h-12.2L266.2,263.4z"/>
<path d="M286.2,315.4v-52h39.2v11.9h-24.8v7.9h23.5v11.4h-23.5v8.9h24.8v11.9H286.2z M305.1,248.1h14.4l-10,11.4h-10.8L305.1,248.1z
	"/>
<path d="M330.7,263.3h41.8v11.9h-14.1v40.2h-13.6v-40.2h-14.1V263.3z"/>
<path d="M398.2,316.1c-9.6,0-17.5-3.8-21.8-6.6l4.7-10.5c2.6,1.6,10.1,5.6,18.4,5.6c3.9,0,6.7-0.9,6.7-3.7c0-3.5-4.2-4.3-10.9-5.9
	c-7-1.7-17.4-4.8-17.4-16c0-10.3,8.8-16.6,19.8-16.6c5.8,0,11.9,1.8,17.5,4.6l-4.1,10.6c-5.3-2.8-10.8-3.9-14.2-3.9
	c-3.9,0-6.1,1.5-6.1,3.8c0,3.2,4.5,4,9.9,5.2c10.8,2.5,18.4,6.6,18.4,16.8C419.1,310.7,410.2,316.1,398.2,316.1z"/>
<path d="M214.6,145.3c-9.6,0-17.5-3.8-21.8-6.6l4.7-10.5c2.6,1.6,10.1,5.6,18.4,5.6c3.9,0,6.7-0.9,6.7-3.7c0-3.5-4.2-4.3-10.9-5.9
	c-7-1.7-17.4-4.8-17.4-16c0-10.3,8.8-16.6,19.8-16.6c5.8,0,11.9,1.8,17.5,4.6l-4.1,10.6c-5.3-2.8-10.8-3.9-14.2-3.9
	c-3.9,0-6.1,1.5-6.1,3.8c0,3.2,4.5,4,9.9,5.2c10.8,2.5,18.4,6.6,18.4,16.8C235.5,139.8,226.5,145.3,214.6,145.3z"/>
<path d="M166.5,145.3c-9.6,0-17.5-3.8-21.8-6.6l4.7-10.5c2.6,1.6,10.1,5.6,18.4,5.6c3.9,0,6.7-0.9,6.7-3.7c0-3.5-4.2-4.3-10.9-5.9
	c-7-1.7-17.4-4.8-17.4-16c0-10.3,8.8-16.6,19.8-16.6c5.8,0,11.9,1.8,17.5,4.6l-4.1,10.6c-5.3-2.8-10.8-3.9-14.2-3.9
	c-3.9,0-6.1,1.5-6.1,3.8c0,3.2,4.5,4,9.9,5.2c10.8,2.5,18.4,6.6,18.4,16.8C187.4,139.8,178.4,145.3,166.5,145.3z"/>
<g>
	<g>
		<path fill="#FA501B" d="M511.1,348.8v-30l-91.2,30h-83.1v92.5h294.6v-92.5H511.1z"/>
	</g>
	<g>
		<path fill="#FFFFFF" d="M374.9,369l-17.8,52h13.5l3.1-9.6h18.6l3.2,9.6h13.9l-17.8-52H374.9z M377.6,399.9l5.1-16.7h1.1l5,16.7
			H377.6z"/>
		<polygon fill="#FFFFFF" points="419.2,421 458.3,421 458.3,409.5 433.2,409.5 433.2,400.2 455.2,400.2 455.2,389.4 433.2,389.4 
			433.2,380.5 458.3,380.5 458.3,369 419.2,369 		"/>
		<polygon fill="#FFFFFF" points="472,421 511.1,421 511.1,409.5 486.1,409.5 486.1,400.2 508.1,400.2 508.1,389.4 486.1,389.4 
			486.1,380.5 511.1,380.5 511.1,369 472,369 		"/>
		<polygon fill="#FFFFFF" points="521.3,380.5 534.8,380.5 534.8,421 548.1,421 548.1,380.5 561.7,380.5 561.7,369 521.3,369 		"/>
		<path fill="#FFFFFF" d="M592.5,388.5c-5.4-1.2-9.9-2-9.9-5.2c0-2.2,2.1-3.8,6.1-3.8c3.3,0,8.9,1.1,14.2,3.9l4.1-10.6
			c-5.6-2.8-11.7-4.6-17.5-4.6c-11,0-19.8,6.2-19.8,16.6c0,11.2,10.4,14.3,17.4,16c6.7,1.6,10.9,2.4,10.9,5.9c0,2.8-2.7,3.7-6.7,3.7
			c-8.3,0-15.8-4-18.4-5.6l-4.7,10.5c4.3,2.7,12.1,6.6,21.8,6.6c12,0,20.9-5.5,20.9-16.5C610.9,395.1,603.2,391,592.5,388.5z"/>
	</g>
</g>
</svg>
