<?xml version="1.0" encoding="utf-8"?>
<!-- Generator: Adobe Illustrator 23.0.1, SVG Export Plug-In . SVG Version: 6.00 Build 0)  -->
<svg version="1.1" id="Calque_1" xmlns="http://www.w3.org/2000/svg" xmlns:xlink="http://www.w3.org/1999/xlink" x="0px" y="0px"
	 viewBox="0 0 792 319.93" style="enable-background:new 0 0 792 319.93;" xml:space="preserve">
<style type="text/css">
	.st0{fill-rule:evenodd;clip-rule:evenodd;fill:#041A37;}
	.st1{fill:#EB3E00;}
	.st2{fill:#041A37;}
</style>
<g>
	<path class="st0" d="M700.81,100.265c0,0-40.821-13.096-40.821,10.238c0,11.419,12.075,12.075,21.789,15.882
		c9.396,3.682,23.796,9.056,23.796,26.12c0,22.272-19.685,28.587-34.69,28.587s-25.587-4.304-25.587-4.304l2.748-10.5
		c0,0,8.532,3.806,22.183,3.806c13.65,0,22.97-6.169,22.97-15.095c0-10.764-4.726-13.783-15.357-18.377
		c-10.439-4.511-29.796-7.441-29.796-25.202c0-17.76,12.601-24.701,32.289-24.701c14.978,0,23.443,3.57,23.443,3.57L700.81,100.265z
		"/>
	<path class="st0" d="M621.701,88.601v87.661c0,0-10.541,4.595-30.624,4.595c-20.082,0-39.836-5.906-39.836-39.837V88.583h11.485
		v52.24c0,0-1.832,28.568,22.444,29.139c11.157,0.261,11.814,0,18.377-0.526c4.366-0.35,7.087-1.311,7.087-1.311V88.583
		C610.634,88.583,621.73,88.63,621.701,88.601z"/>
	<path class="st0" d="M528.076,88.583l-22.971,42.943l26.252,47.231h-12.863l-25.989-47.231l22.444-42.812L528.076,88.583z
		 M455.687,88.254l22.969,43.272l-26.251,46.902h12.864l25.989-46.902l-22.446-43.14L455.687,88.254z"/>
	<path class="st0" d="M333.354,179.061v-57.977c0,0,0.556-23.781-19.008-23.781s-29.425,19.008-29.425,31.653v49.945h-12.169V88.555
		h10.976v16.224c0,0,10.339-18.053,31.652-18.053c21.315,0,29.269,13.6,29.269,31.574v60.761H333.354z"/>
	<path class="st0" d="M376.098,135.739c0,0-0.085,2.136-0.085,2.392c0,26.735,18.535,32.544,33.825,32.544
		c15.29,0,22.768-4.803,22.768-4.803l2.174,10.185c0,0-11.447,4.715-28.188,4.697c-45.745-0.048-42.878-45.611-42.878-46.894
		c0-0.768-2.818-47.234,40.145-47.234c42.964,0,36.302,49.114,36.302,49.114H376.098z M376.354,125.66h52.701
		c0,0,0.855-28.871-25.538-28.871C377.123,96.789,376.354,125.66,376.354,125.66z"/>
</g>
<rect x="90.128" y="206.346" class="st0" width="3.765" height="26.055"/>
<path class="st0" d="M137.265,232.402v-26.055h4.11l9.348,13.183c2.165,3.054,3.852,5.798,5.236,8.466l0.087-0.039
	c-0.345-3.48-0.432-6.649-0.432-10.709v-10.902h3.549v26.055h-3.808l-9.261-13.22c-2.035-2.899-3.982-5.876-5.454-8.698l-0.131,0.04
	c0.217,3.285,0.304,6.417,0.304,10.746v11.133H137.265z"/>
<path class="st0" d="M202.54,232.402v-26.055h4.11l9.348,13.183c2.165,3.054,3.852,5.798,5.236,8.466l0.087-0.039
	c-0.345-3.48-0.432-6.649-0.432-10.709v-10.902h3.549v26.055h-3.808l-9.261-13.22c-2.035-2.899-3.982-5.876-5.454-8.698l-0.131,0.04
	c0.217,3.285,0.304,6.417,0.304,10.746v11.133H202.54z"/>
<path class="st0" d="M292.742,219.104c0,8.968-6.102,13.724-13.546,13.724c-7.703,0-13.112-5.335-13.112-13.22
	c0-8.273,5.755-13.685,13.545-13.685C287.593,205.922,292.742,211.372,292.742,219.104z M270.108,219.529
	c0,5.568,3.376,10.553,9.305,10.553c5.972,0,9.347-4.909,9.347-10.823c0-5.181-3.029-10.593-9.304-10.593
	C273.225,208.666,270.108,213.808,270.108,219.529z"/>
<path class="st0" d="M340.836,232.402l-9.52-26.055h4.068l4.543,12.835c1.255,3.517,2.338,6.688,3.117,9.742h0.087
	c0.822-3.015,2.034-6.3,3.332-9.703l4.933-12.874h4.025l-10.43,26.055H340.836z"/>
<path class="st0" d="M397.627,224.207l-3.029,8.195h-3.896l9.911-26.054h4.544l9.953,26.054h-4.025l-3.116-8.195H397.627z
	 M407.191,221.578l-2.855-7.5c-0.65-1.701-1.082-3.248-1.515-4.754h-0.087c-0.433,1.547-0.908,3.131-1.472,4.716l-2.855,7.538
	H407.191z"/>
<polygon class="st0" points="458.4,209.208 449.53,209.208 449.53,206.347 471.124,206.347 471.124,209.208 462.21,209.208 
	462.21,232.402 458.4,232.402 "/>
<rect x="511.167" y="206.346" class="st0" width="3.765" height="26.055"/>
<path class="st0" d="M583.232,219.104c0,8.968-6.1,13.724-13.545,13.724c-7.702,0-13.113-5.335-13.113-13.22
	c0-8.273,5.756-13.685,13.546-13.685C578.082,205.922,583.232,211.372,583.232,219.104z M560.599,219.529
	c0,5.568,3.376,10.553,9.305,10.553c5.972,0,9.348-4.909,9.348-10.823c0-5.181-3.029-10.593-9.305-10.593
	C563.716,208.666,560.599,213.808,560.599,219.529z"/>
<path class="st0" d="M624.921,232.402v-26.055h4.112l9.348,13.183c2.165,3.054,3.852,5.798,5.236,8.466l0.087-0.039
	c-0.347-3.48-0.432-6.649-0.432-10.709v-10.902h3.548v26.055h-3.808l-9.261-13.22c-2.035-2.899-3.982-5.876-5.453-8.698l-0.129,0.04
	c0.217,3.285,0.303,6.417,0.303,10.746v11.133H624.921z"/>
<path class="st0" d="M689.678,228.304c1.689,0.927,4.155,1.701,6.751,1.701c3.852,0,6.102-1.816,6.102-4.445
	c0-2.437-1.558-3.827-5.495-5.181c-4.761-1.507-7.705-3.71-7.705-7.383c0-4.058,3.765-7.075,9.435-7.075
	c2.986,0,5.151,0.619,6.448,1.276l-1.039,2.744c-0.951-0.464-2.899-1.236-5.539-1.236c-3.982,0-5.496,2.126-5.496,3.904
	c0,2.434,1.775,3.633,5.798,5.026c4.935,1.7,7.445,3.827,7.445,7.654c0,4.02-3.332,7.5-10.214,7.5c-2.813,0-5.886-0.735-7.442-1.662
	L689.678,228.304z"/>
<polygon class="st1" points="169.598,82.539 202.11,179.064 247.335,179.064 "/>
<polygon class="st2" points="92.196,179.064 191.754,179.064 162.28,91.881 "/>
</svg>
